<svg id="logo" version="1.1" xmlns="http://www.w3.org/2000/svg" width="40" height="40"
                        viewBox="0 0 256 256">
                        <path
                            d="M0 0 C15.23757039 -0.62894287 30.08899671 4.65166602 41.51953125 14.6640625 C48.30804262 21.07012252 53.26014323 27.82743801 57.76953125 35.9765625 C58.28104736 36.88784912 58.79256348 37.79913574 59.31958008 38.73803711 C60.37286506 40.61707666 61.42274994 42.49802613 62.46923828 44.38085938 C63.96189623 47.06059175 65.47044639 49.7306772 66.984375 52.3984375 C67.89240876 54.00754078 68.79998374 55.61690307 69.70703125 57.2265625 C70.12887695 57.96946533 70.55072266 58.71236816 70.98535156 59.4777832 C71.37174805 60.16960693 71.75814453 60.86143066 72.15625 61.57421875 C72.49358154 62.17371338 72.83091309 62.77320801 73.1784668 63.39086914 C75.93853327 69.20984238 75.66891221 75.58320928 73.95703125 81.6640625 C71.64294439 87.97322384 67.51092077 92.5695732 61.89453125 96.1640625 C59.01809885 97.16456073 57.02537259 97.24502792 54.01953125 97.1640625 C53.62797852 96.45612549 53.23642578 95.74818848 52.83300781 95.01879883 C40.13049345 71.97537736 40.13049345 71.97537736 27.01953125 49.1640625 C26.37757813 48.06191406 25.735625 46.95976563 25.07421875 45.82421875 C20.70197629 38.89980685 15.60292288 35.67901006 7.73046875 33.54296875 C1.31447741 32.4434084 -5.20706709 33.62030859 -10.63842773 37.28173828 C-15.82853204 41.33861653 -18.70251028 46.17508953 -21.79296875 51.9140625 C-22.55673828 53.29537354 -22.55673828 53.29537354 -23.3359375 54.70458984 C-24.38237997 56.59866372 -25.4235707 58.49564865 -26.45947266 60.39550781 C-27.89017107 62.99970043 -29.35406165 65.58091608 -30.8359375 68.15625 C-40.84501783 85.6250305 -46.84464859 103.61560459 -41.98046875 123.9765625 C-41.14993581 126.50316531 -41.14993581 126.50316531 -39.98046875 129.1640625 C-39.72765137 129.76524902 -39.47483398 130.36643555 -39.21435547 130.98583984 C-33.03846579 145.31935631 -24.76198075 155.43297041 -10.98046875 163.1640625 C-10.23796875 163.5971875 -9.49546875 164.0303125 -8.73046875 164.4765625 C-7.15725108 165.39004373 -5.57072922 166.28058446 -3.98046875 167.1640625 C-7.94969799 168.48713891 -10.64927996 167.33583953 -14.48046875 166.1015625 C-15.19734863 165.87186768 -15.91422852 165.64217285 -16.65283203 165.40551758 C-27.17033282 161.90243335 -35.66293937 156.45233239 -43.98046875 149.1640625 C-44.66882813 148.57109375 -45.3571875 147.978125 -46.06640625 147.3671875 C-59.70539945 134.75246652 -68.95882117 114.63317986 -70.10644531 96.13330078 C-70.83777913 75.09588185 -65.59015055 57.83964577 -55.23046875 39.5390625 C-54.66070312 38.4975 -54.0909375 37.4559375 -53.50390625 36.3828125 C-43.91540383 19.2939704 -31.93745041 8.23422577 -13.29296875 1.9140625 C-8.86230121 0.91089249 -4.51204489 0.37377887 0 0 Z "
                            transform="translate(104.98046875,51.8359375)" fill="#FFFFFF" />
                        <path
                            d="M0 0 C1.9023302 1.62994112 3.21804721 3.43150888 4.69140625 5.44921875 C2.60978003 9.17934068 0.52605046 12.90828266 -1.55859375 16.63671875 C-2.18886475 17.76408447 -2.81913574 18.8914502 -3.46850586 20.05297852 C-8.02588276 28.19151919 -12.63111279 36.30132107 -17.31152344 44.36987305 C-25.98674781 58.94531175 -25.98674781 58.94531175 -27.30859375 75.44921875 C-24.93854103 82.81266499 -21.58784844 88.17760238 -15.04296875 92.36328125 C-6.27192709 95.84663779 2.85181334 95.76301897 12.14819336 95.70996094 C14.3575438 95.69932162 16.56606612 95.70986426 18.77539062 95.72265625 C39.61235932 95.7451816 58.95790452 92.53720673 74.87890625 77.82421875 C86.98980242 64.91916545 92.93514969 48.55724012 92.75390625 31.07421875 C92.74713867 29.82705078 92.74713867 29.82705078 92.74023438 28.5546875 C92.72853789 26.51949978 92.7106056 24.48434952 92.69140625 22.44921875 C93.35140625 22.44921875 94.01140625 22.44921875 94.69140625 22.44921875 C95.17614303 24.13512717 95.65389551 25.8230442 96.12890625 27.51171875 C96.39574219 28.45144531 96.66257813 29.39117187 96.9375 30.359375 C102.14046667 51.68345081 98.01849809 74.19830946 87.06640625 93.01171875 C74.65249828 112.29636377 56.99807825 124.1831158 34.69140625 129.44921875 C30.09264534 130.35450942 25.61548068 130.62358399 20.94140625 130.65234375 C19.83865356 130.66089386 19.83865356 130.66089386 18.71362305 130.6696167 C17.16049619 130.67902486 15.60734975 130.68558395 14.05419922 130.68945312 C11.72586185 130.69907634 9.39844017 130.73010403 7.0703125 130.76171875 C-12.44939889 130.90134863 -28.94121426 126.46239474 -43.30859375 112.44921875 C-56.99950783 96.86008435 -60.29195339 80.15601517 -59.49072266 60.11865234 C-58.73541061 49.04816725 -53.10329702 39.49111564 -47.75537109 30.01855469 C-46.71187547 28.16540788 -45.67972577 26.30585617 -44.65478516 24.44238281 C-42.87174207 21.20398572 -41.0623167 17.98160798 -39.24609375 14.76171875 C-38.68100098 13.73393311 -38.1159082 12.70614746 -37.53369141 11.6472168 C-33.29963006 4.26592175 -28.73126143 -1.28940125 -20.43359375 -3.98828125 C-12.83362366 -5.41886385 -6.42636027 -4.25293571 0 0 Z "
                            transform="translate(122.30859375,90.55078125)" fill="#FFFFFF" />
                        <path
                            d="M0 0 C10.36993167 8.94786092 17.70362839 19.41106389 24.22265625 31.375 C24.86396484 32.51259766 25.50527344 33.65019531 26.16601562 34.82226562 C35.38101378 51.52742774 39.41421284 69.04657347 34.78515625 87.8125 C29.67555552 104.65459856 19.13152683 118.1342568 3.546875 126.46875 C-5.8680078 130.94830696 -14.12932941 132.25196025 -24.46484375 132.2734375 C-26.1506958 132.2834227 -26.1506958 132.2834227 -27.87060547 132.29360962 C-30.23728813 132.30369538 -32.603999 132.30842791 -34.97070312 132.30810547 C-38.57860235 132.31248635 -42.18528488 132.34887248 -45.79296875 132.38671875 C-48.10025626 132.3925863 -50.40754954 132.3965561 -52.71484375 132.3984375 C-54.32141846 132.41999405 -54.32141846 132.41999405 -55.96044922 132.44198608 C-63.61170621 132.39558583 -68.88453347 131.12639073 -74.83203125 126.0078125 C-81.06812324 118.57821008 -82.2397476 112.56514538 -81.58984375 102.9375 C-81.09484375 101.4525 -81.09484375 101.4525 -80.58984375 99.9375 C-79.46137276 99.93203156 -79.46137276 99.93203156 -78.31010437 99.92645264 C-71.17591856 99.88838517 -64.04224421 99.8313233 -56.90838909 99.75359726 C-53.24188794 99.71430122 -49.57562052 99.68202633 -45.90893555 99.66650391 C-42.36190563 99.65121787 -38.81551908 99.61656621 -35.26877785 99.56919098 C-33.27561406 99.547411 -31.28226809 99.54503659 -29.28898621 99.54315186 C-20.23774976 99.3992709 -11.88176914 98.40756733 -4.65234375 92.5625 C0.90663879 85.48743131 4.33451123 79.18104982 3.41015625 69.9375 C1.06929966 61.92852635 -2.6052923 54.81158885 -6.77734375 47.625 C-7.35105713 46.62533203 -7.92477051 45.62566406 -8.51586914 44.59570312 C-12.97221655 36.88324955 -17.52013379 29.26506017 -22.58984375 21.9375 C-23.06035156 21.25042969 -23.53085938 20.56335938 -24.015625 19.85546875 C-33.04951348 8.05012186 -48.7816013 1.3520937 -63.05859375 -0.78125 C-78.96039886 -2.54811723 -91.93156174 2.46589625 -105.58984375 9.9375 C-106.91935074 10.61176507 -108.25046279 11.28306829 -109.58984375 11.9375 C-104.09996012 -0.253271 -88.71762027 -8.47664806 -76.6953125 -13.06640625 C-50.30101705 -21.53250102 -21.90843735 -17.44744332 0 0 Z "
                            transform="translate(177.58984375,52.0625)" fill="#FFFFFF"/>
                         Add the other paths here
                    </svg>